<svg width="400" height="400" xmlns="http://www.w3.org/2000/svg">
 <style type="text/css">.st0{display:none;opacity:0.18;fill:none;stroke:#3C3E3F;stroke-width:20;stroke-miterlimit:10;}
	.st1{fill:#BC423E;}
	.st2{opacity:0.12;fill:none;stroke:#000000;stroke-width:18;stroke-miterlimit:10;}
	.st3{fill:none;stroke:#3C3E3F;stroke-width:20;stroke-miterlimit:10;}</style>

 <g>
  <title>Layer 1</title>
  <path id="svg_1" d="m330,265l-208,0c-2.2,0 -4,-1.8 -4,-4l0,-211c0,-2.2 1.8,-4 4,-4l208,0c2.2,0 4,1.8 4,4l0,211c0,2.2 -1.8,4 -4,4z" class="st0"/>
  <path id="svg_2" d="m264,348l-212,0c-2.2,0 -4,-1.8 -4,-4l0,-209c0,-2.2 1.8,-4 4,-4l212,0c2.2,0 4,1.8 4,4l0,209c0,2.2 -1.8,4 -4,4z" class="st0"/>
  <g stroke="null" id="svg_3">
   <rect stroke="null" id="svg_4" height="126.85437" width="139" class="st1" y="136.57282" x="130.27507"/>
   <rect stroke="null" id="svg_5" height="116.95793" width="129.37346" class="st2" y="141.52104" x="135.31326"/>
   <path stroke="null" id="svg_6" d="m329.10355,263.42719l-195.22978,0c-1.97929,0 -3.59871,-1.61942 -3.59871,-3.59871l0,-195.22978c0,-1.97929 1.61942,-3.59871 3.59871,-3.59871l195.22978,0c1.97929,0 3.59871,1.61942 3.59871,3.59871l0,195.22978c0,1.97929 -1.61942,3.59871 -3.59871,3.59871z" class="st3"/>
   <path stroke="null" id="svg_7" d="m266.12621,339l-195.22978,0c-1.97929,0 -3.59871,-1.61942 -3.59871,-3.59871l0,-195.22978c0,-1.97929 1.61942,-3.59871 3.59871,-3.59871l195.22978,0c1.97929,0 3.59871,1.61942 3.59871,3.59871l0,195.22978c0,1.97929 -1.61942,3.59871 -3.59871,3.59871z" class="st3"/>
  </g>
 </g>
</svg>