<?xml version="1.0" encoding="utf-8"?>
<svg version="1.1" id="logo_bof" xmlns="http://www.w3.org/2000/svg" xmlns:xlink="http://www.w3.org/1999/xlink" x="0px" y="0px"
	 viewBox="0 0 400 400" style="enable-background:new 0 0 400 400;" xml:space="preserve">
<linearGradient id="SVGID_1_" gradientUnits="userSpaceOnUse" x1="-54.3625" y1="456.8625" x2="-54.3625" y2="455.8625" gradientTransform="matrix(400 0 0 -400 21945 182745)">
	<stop  offset="0" style="stop-color:#FFDE02"/>
	<stop  offset="1" style="stop-color:#E25392"/>
</linearGradient>
<ellipse style="fill:url(#SVGID_1_)" cx="200" cy="200" rx="200" ry="200"/>
<g id="BOW" style="enable-background:new">
	<path id="W" style="fill:#FFFFFF" d="M69.6,227.9v-4l1.7-1c-0.3-1.5-0.4-2.9-0.5-4.4c-0.1-1.4-0.1-2.9-0.1-4.4c0-1.6,0-3.3,0.1-4.9
		c0-1.6,0.1-3.3,0.1-5c0-1.8-0.1-3.6-0.3-5.5c-0.2-1.8-0.5-3.6-0.9-5.5h-0.8c0.1,4.6,0.2,9.1,0.5,13.5c0.2,4.4,0.3,8.9,0.3,13.5
		c-0.4-6.6-0.9-13.2-1.5-19.8c-0.6-6.6-0.8-13.3-0.8-20c0-2,0.1-4,0.3-6c0.2-2,0.5-4,0.7-6l-8.6,2.2l0.1-0.4
		c-0.2-0.3-0.4-0.7-0.7-1.4c-0.3-0.7-0.5-1.1-0.5-1.3c0-0.4,0.5-0.9,1.4-1.4c0.9-0.5,1.9-0.9,3.1-1.2c1.2-0.3,2.3-0.7,3.4-0.9
		c1.1-0.3,1.8-0.4,2.3-0.5l-0.4-1.6c-0.7,0.2-2.1,0.4-4.2,0.6c-2.1,0.2-4.3,0.3-6.4,0.3c-1.7,0-3.2-0.1-4.5-0.4
		c-1.3-0.3-2-0.8-2-1.7c0-1,0.9-1.9,2.6-2.9c1.7-1,4-1.8,6.7-2.7c2.7-0.8,5.7-1.6,9-2.3c3.3-0.7,6.5-1.3,9.5-1.8
		c3-0.5,5.8-0.9,8.2-1.2c2.4-0.3,4.1-0.4,5.1-0.4c4.4,0,8.6,0.5,12.7,1.6c4,1.1,7.6,2.8,10.6,5.1c3,2.3,5.4,5.2,7.2,8.8
		c1.8,3.6,2.7,7.8,2.7,12.6c0,2-0.3,4.1-0.9,6.2c-0.6,2.1-1.5,4.2-2.8,6.1c-1.3,2-2.9,3.7-4.8,5.3c-2,1.6-4.3,2.7-7,3.4
		c4.5,0.6,8.4,1.6,11.6,3.1c3.2,1.5,5.9,3.2,7.9,5.3c2,2.1,3.5,4.4,4.5,7c1,2.6,1.4,5.4,1.4,8.3c0,3.8-0.8,7.1-2.3,9.8
		c-1.5,2.7-3.5,4.9-6,6.8c-2.5,1.8-5.4,3.2-8.6,4.2c-3.2,1-6.5,1.8-10,2.3c-3.5,0.5-6.9,0.8-10.3,1c-3.4,0.1-6.5,0.2-9.2,0.2
		c-0.7,0-2,0-4-0.1c-2-0.1-4-0.3-6-0.5c-2.1-0.3-3.9-0.6-5.5-1.1c-1.6-0.5-2.4-1.1-2.4-1.9l0.1-0.7c3.6,0.6,7.3,1.1,10.9,1.5
		c3.6,0.4,7.3,0.6,10.9,0.6c2.8,0,5.5-0.2,8.2-0.5c2.7-0.3,5.4-0.8,8.1-1.3c-4.9,0.9-9.9,1.3-15.2,1.3c-3.7,0-7.4-0.2-11.1-0.5
		c-3.7-0.3-7.3-0.8-11-1.4l0.6-1.6l-0.3-0.9c-0.3,0.1-0.7,0.1-1.2,0.1c-0.9,0-1.9-0.2-3-0.5c-1.1-0.3-2.2-0.8-3.2-1.3
		c-1-0.5-1.8-1.1-2.5-1.8c-0.7-0.7-1-1.4-1-2.1c0-0.4,0.3-0.8,1-1c0.7-0.3,1.5-0.5,2.4-0.6c0.9-0.1,1.8-0.2,2.7-0.3
		c0.9-0.1,1.5-0.2,1.8-0.3L69.6,227.9z M72.8,232.6c0.2-3,0.3-6.1,0.3-9.2v-9.2c0-1.7,0-3.4-0.1-5.1c-0.1-1.6-0.2-3.1-0.4-4.7
		c0,2.3,0,4.5,0,6.8c0.1,2.3,0.1,4.7,0.1,7c0,2.4,0,4.8-0.1,7.1c-0.1,2.3-0.3,4.7-0.7,7L72.8,232.6z M74.4,169.2l0.9-2.1l-2.1,0.3
		c0,0.2,0,0.3,0.1,0.5c0,0.1,0.1,0.3,0.1,0.5c0,0.2,0,0.3-0.1,0.5c0,0.1-0.1,0.3-0.1,0.5H74.4z M81.5,234.3H82v-0.9h-0.5V234.3z
		 M82,231.2v-3.9c-0.1,0.7-0.2,1.3-0.2,2c0,0.6-0.1,1.3-0.1,2H82z M82.8,207.2c-0.3,1.6-0.6,3.3-0.6,4.9c-0.1,1.4-0.1,2.8-0.1,4.3
		c0.1-1.4,0.2-2.8,0.4-4.2C82.5,210.7,82.7,209,82.8,207.2z M82.6,166.3c0.2,0.5,0.4,1.6,0.6,3.3c0.2,1.7,0.4,3.7,0.7,5.9
		c0.2,2.3,0.4,4.7,0.6,7.3c0.2,2.6,0.3,5.1,0.5,7.5c0.1,2.4,0.2,4.5,0.3,6.4c0.1,1.9,0.1,3.2,0.1,4c0,4.6-0.2,9.2-0.5,13.7
		c-0.3,4.5-0.5,9.1-0.5,13.7c0,1.7,0.6,2.8,1.8,3.2c1.2,0.4,2.4,0.7,3.8,0.7c4.2,0,8.3-0.2,12.3-0.5c4.1-0.3,8.1-1.2,12-2.7l0.4,1.6
		c1.7-0.9,3.3-1.9,4.6-3.2c1.3-1.3,2-2.9,2-5c0-2.3-0.7-4.4-2.2-6c-1.5-1.7-3.3-3.1-5.4-4.1c-2.1-1-4.4-1.8-6.8-2.3
		c-2.4-0.5-4.5-0.8-6.3-0.8c-0.2,0-0.5,0.1-1,0.3c-0.5,0.2-0.9,0.4-1.2,0.5c1.2,0.1,2.7,0.3,4.6,0.7c1.8,0.3,3.7,0.8,5.6,1.4
		c1.9,0.6,3.7,1.3,5.5,2.1c1.7,0.9,3.2,1.8,4.3,2.9c-1.6-1.3-3.9-2.4-6.8-3.2c-2.9-0.9-6-1.6-9-2.1c-3.1-0.5-5.9-0.9-8.5-1.2
		c-2.6-0.3-4.4-0.5-5.3-0.7L88,195h0.3c2.3,0,4.6-0.4,7.1-1.2c2.5-0.8,4.7-2,6.8-3.5c2.1-1.5,3.8-3.3,5.2-5.5c1.4-2.1,2.1-4.4,2.1-7
		c0-2.4-0.5-4.4-1.6-6c-1-1.6-2.4-2.8-4.1-3.7s-3.6-1.5-5.7-1.8c-2.1-0.3-4.1-0.5-6.1-0.5c-1.6,0-3.1,0.1-4.7,0.2
		S84.2,166.3,82.6,166.3z M84.5,234.7c1.5,0.2,2.9,0.3,4.2,0.4c1.3,0.1,2.8,0.1,4.2,0.1c1.4,0,3.1-0.1,5.1-0.2
		c2-0.1,4.2-0.4,6.5-0.7c2.3-0.3,4.6-0.8,6.9-1.4c2.3-0.6,4.4-1.4,6.2-2.3c1.8-1,3.3-2.1,4.5-3.5c1.2-1.4,1.8-3,1.8-4.9
		c0-1-0.2-2-0.5-3c-0.3-1-0.8-1.9-1.4-2.7c0.4,0.7,0.8,1.5,1.1,2.3c0.3,0.8,0.5,1.7,0.5,2.5c0,2.9-1,5.3-3,7c-2,1.7-4.4,3.1-7.2,4
		c-2.8,0.9-5.7,1.5-8.8,1.8c-3,0.3-5.6,0.4-7.8,0.4c-2,0-4-0.1-6-0.2c-2-0.1-4.1-0.3-6-0.5L84.5,234.7z M97.3,195.4
		c1.6-1,3.1-2,4.5-3c1.4-1,2.8-2.3,4-3.6c-0.4,0-0.6-0.2-0.6-0.5c-2.7,2.9-6,5.2-10,6.9L97.3,195.4z M104.1,207.5
		c2.6,0.4,5.4,1.3,8.3,2.5c2.5,1,4.8,2.3,6.8,3.6c-1.9-1.6-4.2-2.9-6.8-4c-2.9-1.4-5.6-2.1-8.2-2.1H104.1z M118.1,226.6
		c-0.8,0.8-1.7,1.4-2.9,1.8L118.1,226.6z M128,234c-1.6,1.7-3.5,3.1-5.5,4.2c-2,1-4.1,2-6.2,2.9c2.3-0.8,4.4-1.7,6.4-2.7
		C124.7,237.3,126.4,235.8,128,234z M118.5,217c1.4,1.1,2.1,2.5,2.1,4v0.3C120.3,219.7,119.6,218.3,118.5,217z M119.7,224.4
		c-0.1,0-0.1-0.1-0.1-0.3c0-0.2,0.1-0.4,0.2-0.7c0.1-0.3,0.3-0.5,0.5-0.7L119.7,224.4z M120.6,222.1c0,0.1-0.1,0.2-0.3,0.4l0.3-0.5
		V222.1z M124,204.9c0.8,0.7,1.5,1.4,2.2,2.1l1.8,1.8c-0.5-0.8-1.1-1.5-1.7-2.1C125.7,206,124.9,205.4,124,204.9z M131.5,228.6
		c0.9-2.3,1.3-4.4,1.3-6.4v-1.4c0-0.5,0-1-0.1-1.4c0,2.8-0.3,5.4-0.8,7.7c-0.6,2.4-1.8,4.6-3.6,6.7
		C129.6,232.4,130.7,230.6,131.5,228.6z"/>
	<path id="O" style="fill:#FFFFFF" d="M176.2,248.1c3.8,1.2,7.7,1.8,11.7,1.8c4.5,0,8.7-0.7,12.6-2.1c3.9-1.4,7.5-3.3,10.7-5.7
		c3.2-2.4,6-5.2,8.5-8.5c1.7-2.3,3.2-4.7,4.5-7.3c-1.1,2.4-2.4,4.8-3.9,7.2c-2.1,3.3-4.7,6.2-7.7,8.7c-3.1,2.5-6.6,4.5-10.6,6
		c-4,1.5-8.5,2.3-13.5,2.3h-1.7c-7.2,0-13.4-1.6-18.7-4.8c-5.3-3.2-9.7-7.3-13.1-12.3c-3.5-5-6-10.5-7.7-16.7
		c-1.7-6.2-2.5-12.2-2.5-18.2c0-2.5,0.1-5.2,0.4-8c0.3-2.8,0.8-5.7,1.7-8.5c0.9-2.9,2.1-5.7,3.7-8.4c1.6-2.7,3.8-5.2,6.6-7.5
		c2.3-1.8,4.7-3.4,7.3-4.6c2.6-1.3,5.3-2,7.9-2.1c-0.3,0.2-0.4,0.3-0.4,0.5c0,0.3,0.2,0.7,0.6,1.1c0.4,0.4,0.6,0.8,0.6,1.2v0.3
		c0,0.3-0.2,0.6-0.6,0.8c-0.4,0.2-1,0.4-1.9,0.7c-0.9,0.3-2,0.8-3.4,1.4c-1.4,0.6-3,1.5-4.9,2.7c0.5,0.5,0.8,0.9,0.8,1.2
		c1.6-0.9,3.2-1.5,4.6-1.8c1.4-0.3,2.7-0.5,3.9-0.5c2.5,0,4.3,0.4,5.5,1.3c1.1,0.9,1.7,1.5,1.7,2c0,0.7-0.5,1.3-1.6,1.7
		c-1.1,0.4-2.3,1-3.8,1.6c-1.4,0.7-2.9,1.5-4.5,2.6c-1.6,1.1-2.8,2.7-3.6,4.7c-1.4,2.1-2.4,4.7-3.2,7.8c-0.7,3.1-1.1,6.3-1.1,9.5
		c0,5.5,0.7,10.4,2,15c1.3,4.5,3.1,8.4,5.5,11.7c2.4,3.3,5.3,5.8,8.7,7.7c3.4,1.8,7.3,2.7,11.6,2.7c4.2,0,7.9-1,11.2-3.1
		c3.3-2.1,6.2-4.9,8.5-8.5c2.3-3.6,4.1-7.8,5.3-12.5c1.2-4.7,1.8-9.8,1.8-15.1c0-2.6-0.2-5.2-0.5-7.7c-0.3-2.6-0.9-5-1.8-7.3
		c-0.9-2.3-2.2-4.5-3.8-6.6c-1.6-2.1-3.7-4-6.3-5.7c-3.3-1.7-6-3-8.1-3.7c-2.1-0.7-3.1-1.5-3.1-2.1c0-0.3,0.2-0.6,0.5-0.9
		c4.3,1,8.2,2.5,11.7,4.7c3.2,2,5.9,4.6,8.1,7.8c-2.3-3.6-5-6.3-7.9-8.2c-3.2-2.2-7-3.9-11.4-5.1c0.4-0.4,0.6-0.8,0.6-1.2
		c0-0.3-0.6-0.7-1.9-0.9c-1.3-0.3-2.6-0.6-4.1-0.9c-1.5-0.3-2.8-0.8-4.1-1.3c-1.3-0.5-1.9-1.2-1.9-2c0-1,0.8-1.6,2.3-2.1
		c1.6-0.4,3.5-1,5.7-1.6c0.6,0,1.2,0.1,1.8,0.3c0.6,0.2,1.1,0.3,1.5,0.5c4.2,0.8,8.3,2.2,12.2,4.2c3.9,2,7.3,4.6,10.4,7.7
		c3.1,3.1,5.7,6.8,7.7,11.1s3.4,9.1,4,14.5c-0.4-5.1-1.6-9.8-3.4-14c-1.9-4.2-4.3-8-7.3-11.2c-3-3.3-6.5-6.1-10.5-8.3
		c-4-2.3-8.2-4-12.7-5.2c4,0,8,0.8,11.9,2.4c3.9,1.6,7.6,3.9,10.9,7c3.3,3.1,6.2,6.9,8.6,11.4c2.4,4.5,4.2,9.7,5.2,15.5
		c-0.2,0-0.4,0.1-0.8,0.2c-0.3,0.1-0.6,0.2-0.8,0.2c0.8,4.4,1.2,8.7,1.2,12.9c0,6.1-0.9,12-2.8,17.8c-1.9,5.8-4.5,11-8.1,15.5
		c-3.5,4.6-7.8,8.2-12.9,11.1c-5.1,2.8-11,4.2-17.5,4.2c-3.9,0-7.7-0.6-11.4-1.7c-3.7-1.1-7.2-2.6-10.4-4.5c0.2,0.2,0.3,0.3,0.3,0.5
		c0,0.2-0.2,0.3-0.6,0.3C169,245.3,172.5,246.9,176.2,248.1z M166,243.5c0-0.1,0-0.2-0.1-0.3C165.8,243.3,165.9,243.4,166,243.5z
		 M217,209.1c-0.7,3.3-1.7,6.5-3.1,9.6c-1.4,3.1-3.2,5.8-5.3,8.3c2.3-2.3,4.1-5,5.5-8.1C215.4,215.8,216.4,212.5,217,209.1z
		 M227.4,201.5c-0.4,3.4-1.1,6.9-1.9,10.5c-0.8,3.6-2,7.1-3.4,10.6c-1.4,3.5-3.2,6.7-5.4,9.8c-2.2,2.9-4.7,5.5-7.7,7.7
		c2.9-2.1,5.5-4.5,7.8-7.4c2.3-2.9,4.1-6.2,5.7-9.6c1.5-3.5,2.7-7.1,3.5-11c0.8-3.9,1.3-7.7,1.5-11.5
		C227.5,200.7,227.4,201.1,227.4,201.5z M213,175.3c-0.1-0.2-0.2-0.3-0.4-0.5C212.7,174.9,212.8,175.1,213,175.3z M217,209.1
		c0.4-1.9,0.8-3.8,1-5.8c0.2-2,0.3-3.9,0.3-5.9c0-2.2-0.1-4.4-0.4-6.6c0.1,1,0.2,1.9,0.2,2.7c0,0.9,0.1,1.8,0.1,2.7
		C218.2,200.6,217.8,204.9,217,209.1z M224.3,226.1c0.2-0.3,0.3-0.5,0.4-0.8C224.6,225.6,224.5,225.8,224.3,226.1z M225.4,223.9
		c-0.2,0.4-0.3,0.9-0.5,1.3C225,224.7,225.2,224.3,225.4,223.9z M225.8,223c-0.2,0.3-0.3,0.7-0.4,0.9
		C225.5,223.6,225.6,223.3,225.8,223z M229.8,207.5l-1.2,6.4c-0.4,1.6-0.9,3.1-1.3,4.6c-0.4,1.5-1,3-1.6,4.5c1-2.7,1.8-5.4,2.4-8.1
		c0.6-2.7,1.2-5.3,1.6-7.9V207.5z M230.4,197.6c0,1.5-0.1,3-0.3,4.5c-0.1,1.5-0.2,3-0.4,4.5c0-1.5,0.1-3.1,0.3-4.9
		c0.2-1.9,0.3-4,0.3-6.2v-2.3c0.1,0.7,0.1,1.4,0.1,2.2V197.6z"/>
	<path id="B" style="fill:#FFFFFF" d="M288.3,212.3c1.1,3.7,2.3,7.5,3.4,11.3c1.2,3.8,2.6,7.3,4.3,10.6c1.7,3.2,3.8,6.1,6.4,8.5
		c2.6,2.4,5.8,4,9.7,4.7c-3.7-0.3-6.9-1.5-9.6-3.6c-2.6-2.2-4.9-4.8-6.7-8c-1.8-3.2-3.3-6.6-4.4-10.2c-1.1-3.6-2-7-2.5-10
		c-0.3,2.1-0.7,4.4-1.2,6.9c-0.6,2.5-1.3,5-2.1,7.5c-0.9,2.5-1.9,4.8-3.1,7s-2.5,4.1-4.1,5.7l-11,2c-3.7-2.1-7-5-9.8-8.9
		c-2.8-3.9-5.3-8.2-7.4-13.1c-2.1-4.9-3.9-10.1-5.3-15.7c-1.4-5.6-2.6-11.1-3.6-16.6c-1-5.5-1.7-10.7-2.1-15.8
		c-0.5-5.1-0.8-9.5-0.8-13.3l3.2-0.4c0.4,0.3,0.8,0.9,1.1,1.9c0.3,1,0.5,2.1,0.7,3.3c0.2,1.2,0.3,2.4,0.4,3.5
		c0.1,1.1,0.1,1.9,0.1,2.3l1.2-0.4c0-0.7,0-2,0.1-3.8c0.1-1.9,0.3-3.8,0.7-5.7c0.3-1.9,0.8-3.7,1.5-5.1c0.7-1.5,1.5-2.2,2.5-2.2
		c0.5,0,1.1,1.3,1.6,4c0.6,2.7,1.2,6.2,2,10.5c0.8,4.3,1.6,9.1,2.6,14.6c1,5.4,2.1,10.8,3.4,16.2c1.3,5.4,2.9,10.6,4.6,15.6
		c1.7,5,3.7,9.2,6,12.5c0.8-3.8,1.8-8,3.1-12.4c1.3-4.5,2.5-8.6,3.7-12.5c1.2-3.9,2.3-7.1,3.2-9.7s1.5-3.9,1.6-4l13.9-0.4
		c1.1,0.8,2.2,2.2,3.1,4.2c1,2,1.9,4.4,2.7,7.1c0.9,2.7,1.7,5.6,2.5,8.6c0.8,3.1,1.6,6.1,2.5,9c0.9,2.9,1.8,5.6,2.7,8.1
		c1,2.5,2,4.4,3.1,5.9l1.2,0.1c1.3,0,2.6-0.8,4-2.5c1.3-1.6,2.7-3.7,4-6.3c1.3-2.6,2.6-5.4,3.8-8.5c1.2-3.1,2.3-6.1,3.3-9
		c1-2.9,1.8-5.5,2.5-7.9c0.7-2.4,1.2-4.1,1.6-5.3c0.3-1.3,0.7-3.1,1.1-5.4c0.4-2.3,0.8-4.8,1.2-7.5c0.4-2.7,0.9-5.4,1.4-8.1
		c0.5-2.7,1-5.2,1.5-7.4c0.5-2.2,1.1-4,1.7-5.5c0.6-1.4,1.3-2.1,1.9-2.1l0.7,0.1c-2.6,16.7-6.3,33.2-11.2,49.4
		c2.7-8,4.9-16,6.7-24.2c1.8-8.1,3.5-16.3,5.3-24.4l1,1c0.1-0.6,0.3-1.7,0.8-3.3c0.4-1.6,0.9-3.2,1.5-4.9c0.6-1.7,1.2-3.2,1.9-4.5
		c0.7-1.3,1.4-2,2.1-2c0.5,0,1,0.4,1.4,1.3c0.4,0.9,0.7,1.9,0.8,3c0.2,1.1,0.3,2.2,0.4,3.3c0.1,1.1,0.1,1.8,0.1,2.1
		c0,0.3-0.1,0.8-0.4,1.7c-0.3,0.9-0.4,1.5-0.5,1.8c-0.7,2.9-1.5,7-2.5,12.2c-1,5.2-2.2,10.9-3.6,17.1c-1.4,6.2-3,12.5-4.9,18.9
		c-1.7,6.2-3.7,11.8-6,17c2.3-5.2,4.5-10.8,6.4-16.9c2-6.4,3.7-12.7,5.3-18.8c1.5-6.1,2.8-11.8,4-17c1.1-5.2,2-9.3,2.7-12.2
		c0,4.4-0.3,9-1,13.7c-0.7,4.7-1.6,9.5-2.7,14.2c-1.1,4.8-2.4,9.5-3.8,14.2c-1.4,4.7-2.7,9.1-4,13.3l-1.9,0.8
		c-0.8,2.8-1.9,6.1-3.2,9.9c-1.4,3.8-3.1,7.4-5.3,10.9c-2.1,3.4-4.6,6.3-7.4,8.7c-2.8,2.4-6,3.6-9.6,3.6c-2.7,0-5.1-0.6-7.2-1.8
		c-2.1-1.2-4-2.7-5.7-4.7c-1.7-2-3.2-4.2-4.4-6.7c-1.3-2.5-2.4-5.1-3.4-7.8c-1-2.7-1.9-5.4-2.7-8.1c-0.8-2.7-1.5-5.2-2.1-7.5
		C288.6,210.7,288.5,211.4,288.3,212.3z M288,218.3c0.1-0.6,0.2-1.2,0.3-1.8c0.1-0.6,0.2-1.1,0.4-1.8l-0.5-1.6
		c-0.2,0.9-0.3,1.7-0.5,2.5c-0.1,0.8-0.3,1.7-0.5,2.5H288z M313.4,244.4c2.7,0,5.2-0.8,7.6-2.5c2.4-1.7,4.6-4,6.7-6.8
		c-2.3,2.3-4.5,4.2-6.8,5.9c-2.3,1.6-4.8,2.5-7.5,2.5c-2.3,0-4.3-0.6-6.2-1.9c-1.9-1.3-3.6-2.9-5.1-4.9c-1.5-2-2.9-4.3-4-6.9
		c-1.2-2.6-2.2-5.1-3.2-7.6c-1-2.5-1.8-4.9-2.5-7.2c-0.7-2.3-1.3-4.2-1.8-5.8c0.3,2.1,0.8,4.4,1.5,7c0.6,2.6,1.4,5.1,2.3,7.7
		c0.9,2.6,1.9,5.1,3.1,7.6c1.2,2.5,2.5,4.7,4.1,6.6c1.6,1.9,3.3,3.5,5.3,4.7C308.8,243.8,310.9,244.4,313.4,244.4z M312.1,234.4
		c-1-0.3-2.1-1.1-3.1-2.5c-1-1.4-1.7-2.8-2.2-4.3c0.3,0.8,0.6,1.6,0.9,2.5c0.4,0.9,0.9,1.7,1.5,2.5c0.6,0.8,1.2,1.4,1.9,1.9
		c0.7,0.5,1.5,0.7,2.3,0.7c1.4,0,2.8-0.6,4.1-1.9c1.3-1.3,2.6-2.8,3.8-4.6c1.2-1.8,2.2-3.7,3.2-5.8c1-2,1.8-3.9,2.5-5.5
		c-0.7,1.6-1.5,3.4-2.5,5.4c-1,2-2.1,3.9-3.2,5.7c-1.2,1.7-2.4,3.2-3.8,4.4c-1.3,1.2-2.7,1.8-4,1.8
		C313,234.7,312.6,234.6,312.1,234.4z M314.8,247.3c2.9-0.5,5.6-1.6,8.1-3.3c2.4-1.7,4.6-3.7,6.6-6c2-2.3,3.6-4.9,5-7.7
		c0.8-1.5,1.5-2.9,2.2-4.4c-0.6,1.6-1.3,3.2-2.1,4.8c-1.4,2.9-3,5.7-4.9,8.1c-1.9,2.5-4.1,4.5-6.6,6.1
		C320.6,246.5,317.8,247.3,314.8,247.3z M337.2,224.5c-0.2,0.4-0.3,0.9-0.5,1.3C336.8,225.3,337,224.9,337.2,224.5z M337.7,223.4
		c-0.2,0.4-0.3,0.8-0.5,1.2C337.3,224.1,337.5,223.7,337.7,223.4z M338.1,222.5c-0.2,0.3-0.3,0.6-0.4,0.9
		C337.8,223,337.9,222.7,338.1,222.5z"/>
</g>
</svg>
