<?xml version="1.0" encoding="utf-8"?>
<!-- Generator: Adobe Illustrator 23.1.0, SVG Export Plug-In . SVG Version: 6.00 Build 0)  -->
<svg version="1.1" id="Livello_1" xmlns="http://www.w3.org/2000/svg" xmlns:xlink="http://www.w3.org/1999/xlink" x="0px" y="0px"
	 viewBox="0 0 370 171" style="enable-background:new 0 0 370 171;" xml:space="preserve">
<path d="M75.2,167.4c5.8-8.3,5-17,3.9-25.7c-3.2-26.6-6.4-53.2-9.8-79.8c-1.3-10.3-2.9-20.7-5-30.9c-0.9-4.3-3.1-8.5-5.6-12.1
	c-2.9-4.2-7.1-4.2-11-0.8c-1.9,1.7-3.3,3.8-4.9,5.8c-4.3,5.6-8.5,11.3-13,16.7c-3.5,4.3-7.9,7-13.3,8.5C5.9,52,2.6,55.3,2.2,65.9
	C1.6,80,1.9,94.1,2.1,108.3c0,3.3,0.6,6.8,5.8,8.6c6.9-13,4.3-27.5,7.2-41.4C33,74.6,40.4,59.5,51.8,47.3c1,8.7,1.8,15.4,2.5,22
	c2.4,21.3,4.7,42.6,7.3,63.9c1,7.8,2.5,15.6,4.3,23.3C67,161.1,68.7,165.7,75.2,167.4 M138,75.7c-7.6,2.5-10.3,7.4-9.7,14.5
	c0.5,6.7,6.1,6.2,10.4,7.5c1.3,13.8,2.4,27.3,4,40.8c0.7,5.5,2.4,11,4.3,16.3c1.1,3,3,6.1,7.7,6.3c2.7-7.7,3.4-15.4,2.4-23.3
	c-1.7-13.4-3.3-26.8-5-40.3c8.1-3,9.7-8.9,9.1-15.9c-0.6-6.6-4.4-9.9-11.2-10.2c-0.5-13.1-1.9-25.6-0.8-39.1c14,0,27,0,39.9,0
	c3.4,0,6.9,0.2,10.1-0.7c5.8-1.5,10.2-7.2,9.6-11.5c-0.6-4.6-6.8-9.9-12.1-10.4c-0.8-0.1-1.7-0.1-2.5,0c-16.1,2.9-32.3,5.5-48.3,8.8
	c-7.7,1.6-9.7,5.9-8.2,13.7c0.2,1.1,0.5,2.2,0.5,3.3C138,48.7,138,61.7,138,75.7 M278.4,36.6c0.4,1.4,0.8,2,0.7,2.5
	c-2.2,35.4,1.9,70.6,2.8,105.8c0.1,3.9,1.1,7.8,2.5,11.5c0.7,1.8,3.4,4.2,4.7,4c2-0.4,4.6-2.5,5.3-4.4c1.3-3.6,1.9-7.7,1.8-11.6
	c-0.2-7.9-1.2-15.8-1.7-23.7c-1.9-25.9-3.7-51.8-5.5-77.7c-0.1-1.9,0-3.8,0-6.1c2.2-0.3,3.8-0.7,5.5-0.7c4.8-0.1,9.6,0.1,14.4-0.3
	c7.1-0.7,11.2-6.7,10.5-14.7c-0.6-7.9-5-11.9-12.7-11.3c-17.2,1.4-34.3,3.1-51.5,4.5c-4.8,0.4-7,2.9-7.9,7.4
	c-1.7,8.4,1.4,13.2,9.9,14C264,36.2,271.1,36.2,278.4,36.6 M187.8,71.6c-1.8,3.3-3.8,5.7-4.6,8.4c-4.1,14.3-2.3,28,6.2,40.4
	c2.2,3.2,5.3,5.9,8.5,8.1c8.9,5.9,19,5,26.1-2.9c4.1-4.5,7.4-10,9.6-15.7c4.3-10.9,5.1-22.5,5.1-34.1c0-3.9-0.9-7.9-2.4-11.5
	c-0.8-2-3.4-4.4-5.3-4.5c-1.8,0-4.7,2.4-5.3,4.3c-1.3,4.2-1.6,8.8-2.2,13.2c-0.8,6.1-1,12.4-2.6,18.3c-1.5,5.7-5.5,10-12,10.4
	c-6.5,0.4-11.3-2.8-14.7-8.2c-2.2-3.5-2.7-7.2-1.7-11.3C193.8,81.5,194.2,76.4,187.8,71.6 M350.8,97c-5.6,5-8.8,5.7-13.3,3.3
	c-4.6-2.5-7.5-7.7-6.5-12.7c0.6-3,2-5.8,3.2-8.7c2.2-5.6,1.7-10.2-1.7-11.2c-4.5-1.3-6.6,2.3-8.6,5.3c-9.6,14.1-5.7,38.9,7.6,49.5
	c8.5,6.7,19.3,6.2,26.7-1.7c7.2-7.6,10-16.9,9.2-27.2c-0.8-11.2-6-19.9-15.8-25.5c-4.4-2.5-7.5-1.6-9.9,2.7c-4,7.1-2.2,17,4.1,22.3
	C347.2,94.2,348.8,95.4,350.8,97 M108.1,128.1c5-4,4.9-9.8,4.5-15.3c-0.4-6.2-1.6-12.3-2.3-18.5c-1.2-10.1-2.2-20.2-3.7-30.3
	c-0.7-4.5-0.5-9.8-6-12.3c-4.7,2.1-4.4,6.3-4.3,10.2c0.3,10.7,0.8,21.5,1.5,32.2c0.5,7.9,1.2,15.8,2.4,23.6
	C100.9,122.1,102.3,126.5,108.1,128.1 M111.3,15.1c-1-3.4-1.5-6.9-3-9.7c-2.4-4.4-6.5-4.4-9.4-0.3c-3.4,4.8-3.2,15.6,0.4,20.1
	c2.9,3.6,6.6,3.7,8.8-0.4C109.7,21.9,110.3,18.4,111.3,15.1"/>
</svg>
